<?xml version="1.0" standalone="no"?>
<!DOCTYPE svg PUBLIC "-//W3C//DTD SVG 20010904//EN"
 "http://www.w3.org/TR/2001/REC-SVG-20010904/DTD/svg10.dtd">
<svg version="1.0" xmlns="http://www.w3.org/2000/svg"
 width="200.000000pt" height="200.000000pt" viewBox="0 0 200.000000 200.000000"
 preserveAspectRatio="xMidYMid meet">
<metadata>
Created by potrace 1.11, written by Peter Selinger 2001-2013
</metadata>
<g transform="translate(0.000000,200.000000) scale(0.100000,-0.100000)"
fill="#000000" stroke="none">
<path d="M809 1960 c-139 -23 -295 -85 -408 -163 -25 -17 -79 -64 -119 -105
-199 -202 -288 -457 -260 -744 28 -288 200 -553 455 -702 256 -150 586 -161
859 -30 246 118 422 331 496 601 31 113 31 333 -1 453 -94 354 -376 618 -733
685 -52 10 -239 13 -289 5z m247 -124 c211 -28 427 -166 547 -352 45 -70 92
-171 100 -215 3 -13 10 -42 15 -64 23 -87 22 -219 -3 -344 -26 -134 -137 -319
-247 -415 -236 -205 -587 -256 -865 -127 -230 108 -395 316 -448 566 -4 17 -9
80 -12 140 -4 89 -1 126 16 197 38 160 112 289 227 399 187 176 412 248 670
215z"/>
<path d="M865 1463 c-4 -10 -29 -76 -56 -148 -27 -71 -53 -139 -58 -150 -5
-11 -26 -65 -47 -120 -20 -55 -42 -113 -49 -130 -29 -68 -85 -219 -82 -221 7
-7 75 -10 91 -4 13 4 32 43 60 121 l41 114 167 1 166 1 42 -111 c23 -61 48
-116 56 -122 10 -8 105 -9 110 -1 1 1 -71 179 -160 394 l-161 393 -56 0 c-45
0 -58 -4 -64 -17z m133 -273 c27 -74 53 -145 56 -157 7 -21 5 -21 -124 -21
-71 0 -130 2 -130 3 0 6 42 123 50 140 16 34 70 202 71 221 0 22 9 1 77 -186z"/>
</g>
</svg>
